<mxfile host="drawio-plugin" modified="2022-05-08T08:47:34.855Z" agent="5.0 (Macintosh; Intel Mac OS X 10_15_7) AppleWebKit/537.36 (KHTML, like Gecko) Chrome/97.0.4692.45 Safari/537.36" etag="2AuAFOuIjjl_8QRWZJNf" version="15.5.4" type="embed"><diagram id="WurbF0cDGDQfX0howbOm" name="Страница 1"><mxGraphModel dx="3474" dy="3023" grid="1" gridSize="10" guides="1" tooltips="1" connect="1" arrows="1" fold="1" page="1" pageScale="1" pageWidth="827" pageHeight="1169" math="0" shadow="0"><root><mxCell id="0"/><mxCell id="1" parent="0"/><mxCell id="7Coa1NzDVGj1QFFaBr9d-44" value="" style="html=1;dropTarget=0;fillColor=none;" parent="1" vertex="1"><mxGeometry x="101" y="-1130" width="695" height="850" as="geometry"/></mxCell><mxCell id="7Coa1NzDVGj1QFFaBr9d-45" value="" style="shape=module;jettyWidth=8;jettyHeight=4;" parent="7Coa1NzDVGj1QFFaBr9d-44" vertex="1"><mxGeometry x="1" width="20" height="20" relative="1" as="geometry"><mxPoint x="-27" y="7" as="offset"/></mxGeometry></mxCell><mxCell id="7Coa1NzDVGj1QFFaBr9d-40" value="" style="html=1;dropTarget=0;" parent="1" vertex="1"><mxGeometry x="177.5" y="-1070" width="242.5" height="250" as="geometry"/></mxCell><mxCell id="7Coa1NzDVGj1QFFaBr9d-41" value="" style="shape=module;jettyWidth=8;jettyHeight=4;" parent="7Coa1NzDVGj1QFFaBr9d-40" vertex="1"><mxGeometry x="1" width="20" height="20" relative="1" as="geometry"><mxPoint x="-27" y="7" as="offset"/></mxGeometry></mxCell><mxCell id="7Coa1NzDVGj1QFFaBr9d-46" value="&amp;lt;&amp;lt;component&amp;gt;&amp;gt;&amp;nbsp;&lt;br&gt;&lt;b&gt;Executor&lt;/b&gt;" style="text;html=1;strokeColor=none;fillColor=none;align=center;verticalAlign=middle;whiteSpace=wrap;rounded=0;" parent="1" vertex="1"><mxGeometry x="459.5" y="-1120" width="60" height="30" as="geometry"/></mxCell><mxCell id="7Coa1NzDVGj1QFFaBr9d-47" value="&amp;lt;&amp;lt;component&amp;gt;&amp;gt;&amp;nbsp;&lt;br&gt;&lt;b&gt;API&lt;/b&gt;" style="text;html=1;strokeColor=none;fillColor=none;align=center;verticalAlign=middle;whiteSpace=wrap;rounded=0;" parent="1" vertex="1"><mxGeometry x="294.5" y="-1060" width="60" height="30" as="geometry"/></mxCell><mxCell id="7Coa1NzDVGj1QFFaBr9d-111" style="edgeStyle=orthogonalEdgeStyle;rounded=1;orthogonalLoop=1;jettySize=auto;html=1;exitX=1;exitY=0.25;exitDx=0;exitDy=0;entryX=0;entryY=0.75;entryDx=0;entryDy=0;endArrow=none;endFill=0;" parent="1" source="7Coa1NzDVGj1QFFaBr9d-49" target="7Coa1NzDVGj1QFFaBr9d-94" edge="1"><mxGeometry relative="1" as="geometry"/></mxCell><mxCell id="7Coa1NzDVGj1QFFaBr9d-112" style="edgeStyle=orthogonalEdgeStyle;rounded=1;orthogonalLoop=1;jettySize=auto;html=1;exitX=1;exitY=0.75;exitDx=0;exitDy=0;entryX=0;entryY=0.25;entryDx=0;entryDy=0;endArrow=none;endFill=0;" parent="1" source="7Coa1NzDVGj1QFFaBr9d-49" target="7Coa1NzDVGj1QFFaBr9d-97" edge="1"><mxGeometry relative="1" as="geometry"/></mxCell><mxCell id="7Coa1NzDVGj1QFFaBr9d-49" value="«Component»&lt;br&gt;&lt;b&gt;Controller&lt;/b&gt;" style="html=1;dropTarget=0;" parent="1" vertex="1"><mxGeometry x="259.5" y="-1017.5" width="130" height="60" as="geometry"/></mxCell><mxCell id="7Coa1NzDVGj1QFFaBr9d-50" value="" style="shape=module;jettyWidth=8;jettyHeight=4;" parent="7Coa1NzDVGj1QFFaBr9d-49" vertex="1"><mxGeometry x="1" width="20" height="20" relative="1" as="geometry"><mxPoint x="-27" y="7" as="offset"/></mxGeometry></mxCell><mxCell id="7Coa1NzDVGj1QFFaBr9d-51" value="«Component»&lt;br&gt;&lt;b&gt;Request Handler&lt;/b&gt;" style="html=1;dropTarget=0;" parent="1" vertex="1"><mxGeometry x="260" y="-897.5" width="130" height="65" as="geometry"/></mxCell><mxCell id="7Coa1NzDVGj1QFFaBr9d-52" value="" style="shape=module;jettyWidth=8;jettyHeight=4;" parent="7Coa1NzDVGj1QFFaBr9d-51" vertex="1"><mxGeometry x="1" width="20" height="20" relative="1" as="geometry"><mxPoint x="-27" y="7" as="offset"/></mxGeometry></mxCell><mxCell id="7Coa1NzDVGj1QFFaBr9d-53" value="" style="html=1;dropTarget=0;" parent="1" vertex="1"><mxGeometry x="500" y="-1070" width="260" height="250" as="geometry"/></mxCell><mxCell id="7Coa1NzDVGj1QFFaBr9d-54" value="" style="shape=module;jettyWidth=8;jettyHeight=4;" parent="7Coa1NzDVGj1QFFaBr9d-53" vertex="1"><mxGeometry x="1" width="20" height="20" relative="1" as="geometry"><mxPoint x="-27" y="7" as="offset"/></mxGeometry></mxCell><mxCell id="7Coa1NzDVGj1QFFaBr9d-55" value="&amp;lt;&amp;lt;component&amp;gt;&amp;gt;&amp;nbsp;&lt;br&gt;&lt;b&gt;Data&lt;/b&gt;" style="text;html=1;strokeColor=none;fillColor=none;align=center;verticalAlign=middle;whiteSpace=wrap;rounded=0;" parent="1" vertex="1"><mxGeometry x="600" y="-1060" width="60" height="30" as="geometry"/></mxCell><mxCell id="7Coa1NzDVGj1QFFaBr9d-80" style="edgeStyle=orthogonalEdgeStyle;rounded=0;orthogonalLoop=1;jettySize=auto;html=1;exitX=0;exitY=0.5;exitDx=0;exitDy=0;entryX=0;entryY=0.5;entryDx=0;entryDy=0;entryPerimeter=0;endArrow=none;endFill=0;" parent="1" source="7Coa1NzDVGj1QFFaBr9d-58" target="7Coa1NzDVGj1QFFaBr9d-79" edge="1"><mxGeometry relative="1" as="geometry"/></mxCell><mxCell id="7Coa1NzDVGj1QFFaBr9d-58" value="«Component»&lt;br&gt;&lt;b&gt;TaskRepository&lt;/b&gt;" style="html=1;dropTarget=0;" parent="1" vertex="1"><mxGeometry x="620" y="-1010" width="130" height="65" as="geometry"/></mxCell><mxCell id="7Coa1NzDVGj1QFFaBr9d-59" value="" style="shape=module;jettyWidth=8;jettyHeight=4;" parent="7Coa1NzDVGj1QFFaBr9d-58" vertex="1"><mxGeometry x="1" width="20" height="20" relative="1" as="geometry"><mxPoint x="-27" y="7" as="offset"/></mxGeometry></mxCell><mxCell id="7Coa1NzDVGj1QFFaBr9d-60" value="" style="html=1;dropTarget=0;" parent="1" vertex="1"><mxGeometry x="177.5" y="-770" width="440" height="480" as="geometry"/></mxCell><mxCell id="7Coa1NzDVGj1QFFaBr9d-61" value="" style="shape=module;jettyWidth=8;jettyHeight=4;" parent="7Coa1NzDVGj1QFFaBr9d-60" vertex="1"><mxGeometry x="1" width="20" height="20" relative="1" as="geometry"><mxPoint x="-27" y="7" as="offset"/></mxGeometry></mxCell><mxCell id="7Coa1NzDVGj1QFFaBr9d-62" value="&amp;lt;&amp;lt;component&amp;gt;&amp;gt;&amp;nbsp;&lt;br&gt;&lt;b&gt;Execution&lt;/b&gt;" style="text;html=1;strokeColor=none;fillColor=none;align=center;verticalAlign=middle;whiteSpace=wrap;rounded=0;" parent="1" vertex="1"><mxGeometry x="363.5" y="-760" width="60" height="30" as="geometry"/></mxCell><mxCell id="7Coa1NzDVGj1QFFaBr9d-63" value="«Component»&lt;br&gt;&lt;b&gt;Executor&lt;/b&gt;" style="html=1;dropTarget=0;" parent="1" vertex="1"><mxGeometry x="329.5" y="-370" width="130" height="65" as="geometry"/></mxCell><mxCell id="7Coa1NzDVGj1QFFaBr9d-64" value="" style="shape=module;jettyWidth=8;jettyHeight=4;" parent="7Coa1NzDVGj1QFFaBr9d-63" vertex="1"><mxGeometry x="1" width="20" height="20" relative="1" as="geometry"><mxPoint x="-27" y="7" as="offset"/></mxGeometry></mxCell><mxCell id="7Coa1NzDVGj1QFFaBr9d-122" style="edgeStyle=orthogonalEdgeStyle;rounded=1;orthogonalLoop=1;jettySize=auto;html=1;exitX=0.5;exitY=1;exitDx=0;exitDy=0;entryX=1;entryY=0.5;entryDx=0;entryDy=0;entryPerimeter=0;endArrow=none;endFill=0;" parent="1" source="7Coa1NzDVGj1QFFaBr9d-65" target="7Coa1NzDVGj1QFFaBr9d-121" edge="1"><mxGeometry relative="1" as="geometry"/></mxCell><mxCell id="7Coa1NzDVGj1QFFaBr9d-65" value="«Component»&lt;br&gt;&lt;b&gt;Handler&lt;/b&gt;" style="html=1;dropTarget=0;" parent="1" vertex="1"><mxGeometry x="329.5" y="-492.5" width="130" height="65" as="geometry"/></mxCell><mxCell id="7Coa1NzDVGj1QFFaBr9d-66" value="" style="shape=module;jettyWidth=8;jettyHeight=4;" parent="7Coa1NzDVGj1QFFaBr9d-65" vertex="1"><mxGeometry x="1" width="20" height="20" relative="1" as="geometry"><mxPoint x="-27" y="7" as="offset"/></mxGeometry></mxCell><mxCell id="7Coa1NzDVGj1QFFaBr9d-86" style="edgeStyle=orthogonalEdgeStyle;rounded=0;orthogonalLoop=1;jettySize=auto;html=1;exitX=0;exitY=0.5;exitDx=0;exitDy=0;entryX=0;entryY=0.5;entryDx=0;entryDy=0;entryPerimeter=0;endArrow=none;endFill=0;" parent="1" source="7Coa1NzDVGj1QFFaBr9d-67" target="7Coa1NzDVGj1QFFaBr9d-85" edge="1"><mxGeometry relative="1" as="geometry"/></mxCell><mxCell id="7Coa1NzDVGj1QFFaBr9d-67" value="«Component»&lt;br&gt;&lt;b&gt;ModelDataMapper&lt;/b&gt;" style="html=1;dropTarget=0;" parent="1" vertex="1"><mxGeometry x="620" y="-920" width="130" height="65" as="geometry"/></mxCell><mxCell id="7Coa1NzDVGj1QFFaBr9d-68" value="" style="shape=module;jettyWidth=8;jettyHeight=4;" parent="7Coa1NzDVGj1QFFaBr9d-67" vertex="1"><mxGeometry x="1" width="20" height="20" relative="1" as="geometry"><mxPoint x="-27" y="7" as="offset"/></mxGeometry></mxCell><mxCell id="7Coa1NzDVGj1QFFaBr9d-69" value="«Component»&lt;br&gt;&lt;b&gt;Listener&lt;/b&gt;" style="html=1;dropTarget=0;" parent="1" vertex="1"><mxGeometry x="329.5" y="-630" width="130" height="65" as="geometry"/></mxCell><mxCell id="7Coa1NzDVGj1QFFaBr9d-70" value="" style="shape=module;jettyWidth=8;jettyHeight=4;" parent="7Coa1NzDVGj1QFFaBr9d-69" vertex="1"><mxGeometry x="1" width="20" height="20" relative="1" as="geometry"><mxPoint x="-27" y="7" as="offset"/></mxGeometry></mxCell><mxCell id="7Coa1NzDVGj1QFFaBr9d-91" style="edgeStyle=orthogonalEdgeStyle;rounded=0;orthogonalLoop=1;jettySize=auto;html=1;exitX=1;exitY=0.5;exitDx=0;exitDy=0;entryX=0;entryY=0.5;entryDx=0;entryDy=0;entryPerimeter=0;endArrow=none;endFill=0;" parent="1" source="7Coa1NzDVGj1QFFaBr9d-72" target="7Coa1NzDVGj1QFFaBr9d-78" edge="1"><mxGeometry relative="1" as="geometry"/></mxCell><mxCell id="7Coa1NzDVGj1QFFaBr9d-72" value="«Component»&lt;br&gt;&lt;b&gt;Queue&lt;/b&gt;" style="html=1;dropTarget=0;" parent="1" vertex="1"><mxGeometry x="329.5" y="-714" width="128" height="65" as="geometry"/></mxCell><mxCell id="7Coa1NzDVGj1QFFaBr9d-73" value="" style="shape=module;jettyWidth=8;jettyHeight=4;" parent="7Coa1NzDVGj1QFFaBr9d-72" vertex="1"><mxGeometry x="1" width="20" height="20" relative="1" as="geometry"><mxPoint x="-27" y="7" as="offset"/></mxGeometry></mxCell><mxCell id="7Coa1NzDVGj1QFFaBr9d-74" value="«Component»&lt;br&gt;&lt;b&gt;Storage&lt;/b&gt;" style="html=1;dropTarget=0;" parent="1" vertex="1"><mxGeometry x="191.25" y="-630" width="130" height="65" as="geometry"/></mxCell><mxCell id="7Coa1NzDVGj1QFFaBr9d-75" value="" style="shape=module;jettyWidth=8;jettyHeight=4;" parent="7Coa1NzDVGj1QFFaBr9d-74" vertex="1"><mxGeometry x="1" width="20" height="20" relative="1" as="geometry"><mxPoint x="-27" y="7" as="offset"/></mxGeometry></mxCell><mxCell id="7Coa1NzDVGj1QFFaBr9d-76" value="" style="whiteSpace=wrap;html=1;aspect=fixed;" parent="1" vertex="1"><mxGeometry x="607.5" y="-691.5" width="20" height="20" as="geometry"/></mxCell><mxCell id="7Coa1NzDVGj1QFFaBr9d-92" style="edgeStyle=orthogonalEdgeStyle;rounded=0;orthogonalLoop=1;jettySize=auto;html=1;exitX=1;exitY=0.5;exitDx=0;exitDy=0;exitPerimeter=0;entryX=0;entryY=0.5;entryDx=0;entryDy=0;endArrow=none;endFill=0;" parent="1" source="7Coa1NzDVGj1QFFaBr9d-78" target="7Coa1NzDVGj1QFFaBr9d-76" edge="1"><mxGeometry relative="1" as="geometry"/></mxCell><mxCell id="7Coa1NzDVGj1QFFaBr9d-115" style="edgeStyle=orthogonalEdgeStyle;rounded=1;orthogonalLoop=1;jettySize=auto;html=1;exitX=1;exitY=0.5;exitDx=0;exitDy=0;exitPerimeter=0;entryX=1;entryY=0.5;entryDx=0;entryDy=0;endArrow=none;endFill=0;" parent="1" source="7Coa1NzDVGj1QFFaBr9d-78" target="7Coa1NzDVGj1QFFaBr9d-69" edge="1"><mxGeometry relative="1" as="geometry"/></mxCell><mxCell id="7Coa1NzDVGj1QFFaBr9d-78" value="" style="shape=providedRequiredInterface;html=1;verticalLabelPosition=bottom;sketch=0;direction=east;" parent="1" vertex="1"><mxGeometry x="497.5" y="-691.5" width="20" height="20" as="geometry"/></mxCell><mxCell id="7Coa1NzDVGj1QFFaBr9d-82" style="edgeStyle=orthogonalEdgeStyle;rounded=0;orthogonalLoop=1;jettySize=auto;html=1;exitX=1;exitY=0.5;exitDx=0;exitDy=0;exitPerimeter=0;entryX=1;entryY=0.5;entryDx=0;entryDy=0;endArrow=none;endFill=0;" parent="1" source="7Coa1NzDVGj1QFFaBr9d-79" target="7Coa1NzDVGj1QFFaBr9d-81" edge="1"><mxGeometry relative="1" as="geometry"/></mxCell><mxCell id="7Coa1NzDVGj1QFFaBr9d-79" value="" style="shape=providedRequiredInterface;html=1;verticalLabelPosition=bottom;sketch=0;direction=west;" parent="1" vertex="1"><mxGeometry x="540" y="-987.5" width="20" height="20" as="geometry"/></mxCell><mxCell id="7Coa1NzDVGj1QFFaBr9d-81" value="" style="whiteSpace=wrap;html=1;aspect=fixed;" parent="1" vertex="1"><mxGeometry x="490" y="-987.5" width="20" height="20" as="geometry"/></mxCell><mxCell id="7Coa1NzDVGj1QFFaBr9d-84" value="TaskData" style="text;html=1;strokeColor=none;fillColor=none;align=center;verticalAlign=middle;whiteSpace=wrap;rounded=0;" parent="1" vertex="1"><mxGeometry x="520" y="-967.5" width="60" height="30" as="geometry"/></mxCell><mxCell id="7Coa1NzDVGj1QFFaBr9d-90" style="edgeStyle=orthogonalEdgeStyle;rounded=0;orthogonalLoop=1;jettySize=auto;html=1;exitX=1;exitY=0.5;exitDx=0;exitDy=0;exitPerimeter=0;endArrow=none;endFill=0;" parent="1" source="7Coa1NzDVGj1QFFaBr9d-85" target="7Coa1NzDVGj1QFFaBr9d-89" edge="1"><mxGeometry relative="1" as="geometry"/></mxCell><mxCell id="7Coa1NzDVGj1QFFaBr9d-85" value="" style="shape=providedRequiredInterface;html=1;verticalLabelPosition=bottom;sketch=0;direction=west;" parent="1" vertex="1"><mxGeometry x="550" y="-897.5" width="20" height="20" as="geometry"/></mxCell><mxCell id="7Coa1NzDVGj1QFFaBr9d-87" value="MathPackageData" style="text;html=1;strokeColor=none;fillColor=none;align=center;verticalAlign=middle;whiteSpace=wrap;rounded=0;" parent="1" vertex="1"><mxGeometry x="530" y="-877.5" width="60" height="30" as="geometry"/></mxCell><mxCell id="7Coa1NzDVGj1QFFaBr9d-89" value="" style="whiteSpace=wrap;html=1;aspect=fixed;" parent="1" vertex="1"><mxGeometry x="490" y="-897.5" width="20" height="20" as="geometry"/></mxCell><mxCell id="7Coa1NzDVGj1QFFaBr9d-113" style="edgeStyle=orthogonalEdgeStyle;rounded=1;orthogonalLoop=1;jettySize=auto;html=1;exitX=1;exitY=0.25;exitDx=0;exitDy=0;entryX=0;entryY=0.5;entryDx=0;entryDy=0;endArrow=none;endFill=0;" parent="1" source="7Coa1NzDVGj1QFFaBr9d-94" target="7Coa1NzDVGj1QFFaBr9d-81" edge="1"><mxGeometry relative="1" as="geometry"/></mxCell><mxCell id="7Coa1NzDVGj1QFFaBr9d-94" value="" style="whiteSpace=wrap;html=1;aspect=fixed;" parent="1" vertex="1"><mxGeometry x="412" y="-1017.5" width="20" height="20" as="geometry"/></mxCell><mxCell id="7Coa1NzDVGj1QFFaBr9d-132" style="edgeStyle=orthogonalEdgeStyle;rounded=1;orthogonalLoop=1;jettySize=auto;html=1;exitX=1;exitY=0.5;exitDx=0;exitDy=0;entryX=1;entryY=0.5;entryDx=0;entryDy=0;endArrow=none;endFill=0;" parent="1" source="7Coa1NzDVGj1QFFaBr9d-97" target="7Coa1NzDVGj1QFFaBr9d-76" edge="1"><mxGeometry relative="1" as="geometry"><Array as="points"><mxPoint x="450" y="-967"/><mxPoint x="450" y="-800"/><mxPoint x="648" y="-800"/><mxPoint x="648" y="-681"/></Array></mxGeometry></mxCell><mxCell id="7Coa1NzDVGj1QFFaBr9d-97" value="" style="whiteSpace=wrap;html=1;aspect=fixed;" parent="1" vertex="1"><mxGeometry x="412" y="-977.5" width="20" height="20" as="geometry"/></mxCell><mxCell id="7Coa1NzDVGj1QFFaBr9d-106" style="edgeStyle=orthogonalEdgeStyle;rounded=1;orthogonalLoop=1;jettySize=auto;html=1;exitX=1;exitY=0.5;exitDx=0;exitDy=0;exitPerimeter=0;entryX=0.5;entryY=0;entryDx=0;entryDy=0;endArrow=none;endFill=0;" parent="1" source="7Coa1NzDVGj1QFFaBr9d-99" target="7Coa1NzDVGj1QFFaBr9d-51" edge="1"><mxGeometry relative="1" as="geometry"/></mxCell><mxCell id="7Coa1NzDVGj1QFFaBr9d-107" style="edgeStyle=orthogonalEdgeStyle;rounded=1;orthogonalLoop=1;jettySize=auto;html=1;exitX=0;exitY=0.5;exitDx=0;exitDy=0;exitPerimeter=0;entryX=0.5;entryY=1;entryDx=0;entryDy=0;endArrow=none;endFill=0;" parent="1" source="7Coa1NzDVGj1QFFaBr9d-99" target="7Coa1NzDVGj1QFFaBr9d-49" edge="1"><mxGeometry relative="1" as="geometry"/></mxCell><mxCell id="7Coa1NzDVGj1QFFaBr9d-99" value="" style="shape=providedRequiredInterface;html=1;verticalLabelPosition=bottom;sketch=0;direction=south;" parent="1" vertex="1"><mxGeometry x="315" y="-937.5" width="20" height="20" as="geometry"/></mxCell><mxCell id="7Coa1NzDVGj1QFFaBr9d-103" style="edgeStyle=orthogonalEdgeStyle;rounded=1;orthogonalLoop=1;jettySize=auto;html=1;exitX=1;exitY=0.5;exitDx=0;exitDy=0;exitPerimeter=0;entryX=1;entryY=0.5;entryDx=0;entryDy=0;endArrow=none;endFill=0;" parent="1" source="7Coa1NzDVGj1QFFaBr9d-100" target="7Coa1NzDVGj1QFFaBr9d-102" edge="1"><mxGeometry relative="1" as="geometry"/></mxCell><mxCell id="7Coa1NzDVGj1QFFaBr9d-104" style="edgeStyle=orthogonalEdgeStyle;rounded=1;orthogonalLoop=1;jettySize=auto;html=1;exitX=0;exitY=0.5;exitDx=0;exitDy=0;exitPerimeter=0;entryX=0;entryY=0.5;entryDx=0;entryDy=0;endArrow=none;endFill=0;" parent="1" source="7Coa1NzDVGj1QFFaBr9d-100" target="7Coa1NzDVGj1QFFaBr9d-51" edge="1"><mxGeometry relative="1" as="geometry"/></mxCell><mxCell id="7Coa1NzDVGj1QFFaBr9d-100" value="" style="shape=providedRequiredInterface;html=1;verticalLabelPosition=bottom;sketch=0;direction=west;" parent="1" vertex="1"><mxGeometry x="212" y="-875" width="20" height="20" as="geometry"/></mxCell><mxCell id="7Coa1NzDVGj1QFFaBr9d-135" style="edgeStyle=orthogonalEdgeStyle;rounded=1;orthogonalLoop=1;jettySize=auto;html=1;exitX=0;exitY=0.5;exitDx=0;exitDy=0;entryX=1;entryY=0.5;entryDx=0;entryDy=0;endArrow=none;endFill=0;" parent="1" source="7Coa1NzDVGj1QFFaBr9d-102" target="7Coa1NzDVGj1QFFaBr9d-134" edge="1"><mxGeometry relative="1" as="geometry"/></mxCell><mxCell id="7Coa1NzDVGj1QFFaBr9d-102" value="" style="whiteSpace=wrap;html=1;aspect=fixed;" parent="1" vertex="1"><mxGeometry x="164.5" y="-875" width="20" height="20" as="geometry"/></mxCell><mxCell id="7Coa1NzDVGj1QFFaBr9d-105" value="executor-api" style="text;html=1;strokeColor=none;fillColor=none;align=center;verticalAlign=middle;whiteSpace=wrap;rounded=0;" parent="1" vertex="1"><mxGeometry x="184.5" y="-855" width="75" height="30" as="geometry"/></mxCell><mxCell id="7Coa1NzDVGj1QFFaBr9d-110" value="controller-api" style="text;html=1;strokeColor=none;fillColor=none;align=center;verticalAlign=middle;whiteSpace=wrap;rounded=0;" parent="1" vertex="1"><mxGeometry x="339" y="-947.5" width="75" height="30" as="geometry"/></mxCell><mxCell id="7Coa1NzDVGj1QFFaBr9d-114" value="task-queue-api" style="text;html=1;strokeColor=none;fillColor=none;align=center;verticalAlign=middle;whiteSpace=wrap;rounded=0;" parent="1" vertex="1"><mxGeometry x="462.5" y="-714" width="90" height="30" as="geometry"/></mxCell><mxCell id="7Coa1NzDVGj1QFFaBr9d-118" style="edgeStyle=orthogonalEdgeStyle;rounded=1;orthogonalLoop=1;jettySize=auto;html=1;exitX=1;exitY=0.5;exitDx=0;exitDy=0;exitPerimeter=0;entryX=0.5;entryY=1;entryDx=0;entryDy=0;endArrow=none;endFill=0;" parent="1" source="7Coa1NzDVGj1QFFaBr9d-116" target="7Coa1NzDVGj1QFFaBr9d-69" edge="1"><mxGeometry relative="1" as="geometry"/></mxCell><mxCell id="7Coa1NzDVGj1QFFaBr9d-119" style="edgeStyle=orthogonalEdgeStyle;rounded=1;orthogonalLoop=1;jettySize=auto;html=1;exitX=0;exitY=0.5;exitDx=0;exitDy=0;exitPerimeter=0;entryX=0.5;entryY=0;entryDx=0;entryDy=0;endArrow=none;endFill=0;" parent="1" source="7Coa1NzDVGj1QFFaBr9d-116" target="7Coa1NzDVGj1QFFaBr9d-65" edge="1"><mxGeometry relative="1" as="geometry"/></mxCell><mxCell id="7Coa1NzDVGj1QFFaBr9d-116" value="" style="shape=providedRequiredInterface;html=1;verticalLabelPosition=bottom;sketch=0;direction=north;" parent="1" vertex="1"><mxGeometry x="384.5" y="-540" width="20" height="20" as="geometry"/></mxCell><mxCell id="7Coa1NzDVGj1QFFaBr9d-120" value="handler-api" style="text;html=1;strokeColor=none;fillColor=none;align=center;verticalAlign=middle;whiteSpace=wrap;rounded=0;" parent="1" vertex="1"><mxGeometry x="403.5" y="-545" width="90" height="30" as="geometry"/></mxCell><mxCell id="7Coa1NzDVGj1QFFaBr9d-123" style="edgeStyle=orthogonalEdgeStyle;rounded=1;orthogonalLoop=1;jettySize=auto;html=1;exitX=0;exitY=0.5;exitDx=0;exitDy=0;exitPerimeter=0;entryX=0.5;entryY=0;entryDx=0;entryDy=0;endArrow=none;endFill=0;" parent="1" source="7Coa1NzDVGj1QFFaBr9d-121" target="7Coa1NzDVGj1QFFaBr9d-63" edge="1"><mxGeometry relative="1" as="geometry"/></mxCell><mxCell id="7Coa1NzDVGj1QFFaBr9d-121" value="" style="shape=providedRequiredInterface;html=1;verticalLabelPosition=bottom;sketch=0;direction=north;" parent="1" vertex="1"><mxGeometry x="383.5" y="-410" width="20" height="20" as="geometry"/></mxCell><mxCell id="7Coa1NzDVGj1QFFaBr9d-124" value="executor-api" style="text;html=1;strokeColor=none;fillColor=none;align=center;verticalAlign=middle;whiteSpace=wrap;rounded=0;" parent="1" vertex="1"><mxGeometry x="299.5" y="-415" width="90" height="30" as="geometry"/></mxCell><mxCell id="7Coa1NzDVGj1QFFaBr9d-127" style="edgeStyle=orthogonalEdgeStyle;rounded=1;orthogonalLoop=1;jettySize=auto;html=1;exitX=0;exitY=0.5;exitDx=0;exitDy=0;exitPerimeter=0;entryX=0.5;entryY=1;entryDx=0;entryDy=0;endArrow=none;endFill=0;" parent="1" source="7Coa1NzDVGj1QFFaBr9d-126" target="7Coa1NzDVGj1QFFaBr9d-74" edge="1"><mxGeometry relative="1" as="geometry"/></mxCell><mxCell id="7Coa1NzDVGj1QFFaBr9d-128" style="edgeStyle=orthogonalEdgeStyle;rounded=1;orthogonalLoop=1;jettySize=auto;html=1;exitX=1;exitY=0.5;exitDx=0;exitDy=0;exitPerimeter=0;entryX=0;entryY=0.5;entryDx=0;entryDy=0;endArrow=none;endFill=0;" parent="1" source="7Coa1NzDVGj1QFFaBr9d-126" target="7Coa1NzDVGj1QFFaBr9d-65" edge="1"><mxGeometry relative="1" as="geometry"/></mxCell><mxCell id="7Coa1NzDVGj1QFFaBr9d-129" style="edgeStyle=orthogonalEdgeStyle;rounded=1;orthogonalLoop=1;jettySize=auto;html=1;exitX=1;exitY=0.5;exitDx=0;exitDy=0;exitPerimeter=0;entryX=0;entryY=0.5;entryDx=0;entryDy=0;endArrow=none;endFill=0;" parent="1" source="7Coa1NzDVGj1QFFaBr9d-126" target="7Coa1NzDVGj1QFFaBr9d-63" edge="1"><mxGeometry relative="1" as="geometry"/></mxCell><mxCell id="7Coa1NzDVGj1QFFaBr9d-126" value="" style="shape=providedRequiredInterface;html=1;verticalLabelPosition=bottom;sketch=0;direction=south;" parent="1" vertex="1"><mxGeometry x="246.25" y="-530" width="20" height="20" as="geometry"/></mxCell><mxCell id="7Coa1NzDVGj1QFFaBr9d-130" value="storage-api" style="text;html=1;strokeColor=none;fillColor=none;align=center;verticalAlign=middle;whiteSpace=wrap;rounded=0;" parent="1" vertex="1"><mxGeometry x="257.5" y="-535" width="90" height="30" as="geometry"/></mxCell><mxCell id="7Coa1NzDVGj1QFFaBr9d-134" value="" style="whiteSpace=wrap;html=1;aspect=fixed;" parent="1" vertex="1"><mxGeometry x="90" y="-875" width="20" height="20" as="geometry"/></mxCell><mxCell id="7Coa1NzDVGj1QFFaBr9d-137" style="edgeStyle=orthogonalEdgeStyle;rounded=1;orthogonalLoop=1;jettySize=auto;html=1;exitX=1;exitY=0.5;exitDx=0;exitDy=0;entryX=0;entryY=0.5;entryDx=0;entryDy=0;endArrow=none;endFill=0;" parent="1" source="7Coa1NzDVGj1QFFaBr9d-136" target="7Coa1NzDVGj1QFFaBr9d-134" edge="1"><mxGeometry relative="1" as="geometry"/></mxCell><mxCell id="7Coa1NzDVGj1QFFaBr9d-136" value="" style="ellipse;whiteSpace=wrap;html=1;aspect=fixed;fillColor=default;" parent="1" vertex="1"><mxGeometry x="40" y="-872.5" width="15" height="15" as="geometry"/></mxCell><mxCell id="7Coa1NzDVGj1QFFaBr9d-138" value="executor-api" style="text;html=1;strokeColor=none;fillColor=none;align=center;verticalAlign=middle;whiteSpace=wrap;rounded=0;" parent="1" vertex="1"><mxGeometry x="10" y="-855" width="75" height="30" as="geometry"/></mxCell><mxCell id="4" value="" style="whiteSpace=wrap;html=1;" vertex="1" parent="1"><mxGeometry x="350" y="-690" width="120" height="60" as="geometry"/></mxCell></root></mxGraphModel></diagram></mxfile>